<svg width="176" height="216" viewBox="0 0 176 216" fill="none" xmlns="http://www.w3.org/2000/svg">
<rect width="176" height="216" fill="white"/>
<path d="M169.628 135.972H169.045C170.559 133.551 171.25 130.798 170.993 127.944C170.417 121.531 165.035 115.127 160.135 110.543C160.148 110.507 160.163 110.466 160.176 110.43C160.809 108.626 160.465 106.545 159.295 105.128C158.362 103.998 157.315 102.901 156.188 101.868C155.266 101.025 153.931 101.209 153.205 102.28C152.479 103.351 152.637 104.903 153.558 105.746C154.534 106.64 155.433 107.584 156.242 108.566C156.071 109.056 155.854 109.66 155.599 110.356C153.66 115.629 148.621 128.412 142.772 135.972H135.769C136.786 133.049 137.927 128.05 139.208 119.154C140.285 111.672 141.115 103.783 141.623 98.4663C142.987 99.0127 144.571 99.7225 146.232 100.619C146.521 100.774 146.825 100.847 147.123 100.847C147.925 100.847 148.693 100.318 149.053 99.4165C149.546 98.1796 149.082 96.7125 148.018 96.1391C145.787 94.9356 143.684 94.0407 142.006 93.4081C141.874 91.6801 140.966 90.1269 139.58 89.3747C136.568 87.7328 129.976 84.9774 119.639 84.9543C116.169 84.962 113.122 85.2783 110.49 85.7579V77.9842C110.49 71.5413 105.98 66.2992 100.437 66.2992H90.6143V57.4687C90.6143 56.1058 89.664 55 88.4902 55H58.3291C57.1554 55 56.2051 56.1058 56.2051 57.4687C56.2051 58.8316 57.1554 59.9373 58.3291 59.9373H86.3662V99.2107C84.1205 100.842 81.919 102.797 79.9875 105.13C78.8204 106.546 78.4763 108.626 79.1091 110.43C79.1224 110.466 79.1368 110.507 79.1501 110.545C74.7184 114.689 69.8973 120.322 68.5886 126.097H42.6113C41.9089 126.097 41.3369 125.432 41.3369 124.616V59.9373H49.125C50.2987 59.9373 51.249 58.8316 51.249 57.4687C51.249 56.1058 50.2987 55 49.125 55H39.2129C38.0391 55 37.0889 56.1058 37.0889 57.4687V124.616C37.0889 127.761 39.047 130.38 41.6201 130.925V135.972H37.3721C33.8586 135.972 31 139.294 31 143.378C31 147.461 33.8586 150.784 37.3721 150.784H39.3545V151.607C39.3545 156.235 42.5936 160 46.5762 160H160.424C164.406 160 167.646 156.235 167.646 151.607V150.784H169.628C173.141 150.784 176 147.461 176 143.378C176 139.294 173.141 135.972 169.628 135.972ZM158.384 115.261C163.428 120.181 166.449 124.905 166.768 128.457C167.014 131.196 165.603 133.908 162.885 135.972H148.263C152.493 129.472 156.067 121.232 158.384 115.261ZM137.775 93.844L137.677 94.9433C137.24 99.8009 136.317 109.281 135.041 118.178C132.935 132.853 131.315 135.559 130.988 135.972H108.296C107.964 135.549 106.345 132.824 104.245 118.178C102.968 109.281 102.044 99.8009 101.607 94.942L101.591 94.7517C101.591 94.7466 101.589 94.7402 101.589 94.735L101.51 93.844C103.677 92.6624 109.782 89.9134 119.638 89.8903C129.503 89.9121 135.607 92.6624 137.775 93.844ZM90.6651 71.2365H100.436C103.637 71.2365 106.241 74.2645 106.241 77.9842V86.7492C104.576 87.2326 103.161 87.7598 101.993 88.2651V79.3008C101.993 77.5779 100.786 76.1738 99.3028 76.1738H90.6651V71.2365ZM97.7452 81.1111V91.5605C97.5926 91.8999 97.4742 92.2586 97.3934 92.6315H90.6143V81.1111H97.7452ZM89.4637 102.793C89.5379 102.749 89.6109 102.702 89.6795 102.646C89.6872 102.64 89.6961 102.635 89.7049 102.628C92.5049 100.746 95.3391 99.3946 97.6623 98.465C98.17 103.782 98.9997 111.672 100.077 119.154C101.359 128.05 102.499 133.049 103.517 135.972H96.5184C90.653 128.399 85.6206 115.626 83.6868 110.358C83.4313 109.66 83.2145 109.056 83.0507 108.55C84.9613 106.243 87.1959 104.343 89.4637 102.793ZM80.9002 115.262C83.2134 121.228 86.7855 129.466 91.0247 135.972H76.2904C73.7338 133.985 72.3587 131.369 72.5003 128.702C72.5036 128.624 72.5092 128.545 72.5169 128.457C72.8366 124.905 75.8567 120.183 80.9002 115.262ZM45.8682 131.034H68.3861C68.6483 132.774 69.2689 134.44 70.2081 135.972H45.8682V131.034ZM169.628 145.846H58.2229C57.0492 145.846 56.0989 146.952 56.0989 148.315C56.0989 149.678 57.0492 150.784 58.2229 150.784H163.397V151.607C163.397 153.512 162.063 155.063 160.424 155.063H46.5762C44.9367 155.063 43.6025 153.512 43.6025 151.607V150.784H49.125C50.2987 150.784 51.249 149.678 51.249 148.315C51.249 146.952 50.2987 145.846 49.125 145.846H37.3721C36.2005 145.846 35.248 144.739 35.248 143.378C35.248 142.016 36.2005 140.909 37.3721 140.909H169.628C170.799 140.909 171.752 142.016 171.752 143.378C171.752 144.739 170.799 145.846 169.628 145.846Z" fill="#E55154"/>
</svg>
